<?xml version="1.0" standalone="no"?>
<!DOCTYPE svg PUBLIC "-//W3C//DTD SVG 20010904//EN"
 "http://www.w3.org/TR/2001/REC-SVG-20010904/DTD/svg10.dtd">
<svg version="1.0" xmlns="http://www.w3.org/2000/svg"
 width="260.000000pt" height="260.000000pt" viewBox="0 0 260.000000 260.000000"
 preserveAspectRatio="xMidYMid meet">
<metadata>
Created by potrace 1.11, written by Peter Selinger 2001-2013
</metadata>
<g transform="translate(0.000000,260.000000) scale(0.100000,-0.100000)"
fill="#000000" stroke="none">
<path d="M1120 2088 c-96 -167 -183 -319 -194 -338 -10 -19 -24 -42 -32 -51
-8 -8 -14 -18 -14 -21 0 -3 -63 -114 -140 -247 -77 -133 -140 -243 -140 -245
0 -3 -22 -41 -50 -86 -27 -45 -50 -83 -50 -85 0 -2 -19 -36 -43 -77 -24 -40
-55 -93 -69 -118 -14 -25 -67 -116 -117 -202 -50 -87 -91 -160 -91 -163 0 -3
504 -5 1120 -5 616 0 1120 2 1120 5 0 3 -67 121 -149 263 -82 141 -158 273
-169 292 -11 19 -86 150 -167 290 -81 140 -156 271 -167 290 -11 19 -37 64
-58 100 -21 36 -47 81 -57 100 -11 19 -85 148 -165 285 -80 138 -153 265 -162
283 -9 17 -20 32 -24 32 -4 0 -86 -136 -182 -302z"/>
</g>
</svg>
